<svg xmlns="http://www.w3.org/2000/svg" version="1.1" xmlns:xlink="http://www.w3.org/1999/xlink" xmlns:svgjs="http://svgjs.dev/svgjs" width="2000" height="1999" viewBox="0 0 2000 1999"><g transform="matrix(1,0,0,1,-0.431486880466764,-0.4312711370263287)"><svg viewBox="0 0 343 343" data-background-color="#111111" preserveAspectRatio="xMidYMid meet" height="1999" width="2000" xmlns="http://www.w3.org/2000/svg" xmlns:xlink="http://www.w3.org/1999/xlink"><g id="tight-bounds" transform="matrix(1,0,0,1,0.0740000000000407,0.07400000000001228)"><svg viewBox="0 0 342.85155851775386 342.85155851775386" height="342.85155851775386" width="342.85155851775386"><g><svg></svg></g><g><svg viewBox="0 0 342.85155851775386 342.85155851775386" height="342.85155851775386" width="342.85155851775386"><g><path d="M0 171.426c0-94.676 76.75-171.426 171.426-171.426 94.676 0 171.426 76.75 171.426 171.426 0 94.676-76.75 171.426-171.426 171.426-94.676 0-171.426-76.75-171.426-171.426zM171.426 335.058c90.371 0 163.632-73.261 163.632-163.632 0-90.371-73.261-163.632-163.632-163.632-90.371 0-163.632 73.261-163.632 163.632 0 90.371 73.261 163.632 163.632 163.632z" data-fill-palette-color="tertiary" fill="#000000" stroke="transparent"></path><ellipse rx="164.56874808852186" ry="164.56874808852186" cx="171.42577925887693" cy="171.42577925887693" fill="#000000" stroke="transparent" stroke-width="0" fill-opacity="1" data-fill-palette-color="tertiary"></ellipse></g><g transform="matrix(1,0,0,1,64.84655864529837,127.99827843309401)"><svg viewBox="0 0 213.1584412271571 86.85500165156584" height="86.85500165156584" width="213.1584412271571"><g><svg viewBox="0 0 446.74460631047566 182.03362388813053" height="86.85500165156584" width="213.1584412271571"><g><rect width="16.334308518339768" height="182.03362388813053" x="174.49188662168092" y="0" fill="#000000" opacity="1" stroke-width="0" stroke="transparent" fill-opacity="1" class="rect-yte-0" data-fill-palette-color="primary" rx="1%" id="yte-0" data-palette-color="#ffffff"></rect></g><g transform="matrix(1,0,0,1,233.5861650833185,0.452819959920717)"><svg viewBox="0 0 213.1584412271571 181.1279839682891" height="181.1279839682891" width="213.1584412271571"><g id="textblocktransform"><svg viewBox="0 0 213.1584412271571 181.1279839682891" height="181.1279839682891" width="213.1584412271571" id="textblock"><g><svg viewBox="0 0 213.1584412271571 181.1279839682891" height="181.1279839682891" width="213.1584412271571"><g transform="matrix(1,0,0,1,0,0)"><svg width="213.1584412271571" viewBox="1.63 -31.95 37.599999999999994 31.95" height="181.1279839682891" data-palette-color="#f9f9f9"><path d="M14.83 0L8.22 0 1.63-31.95 5.88-31.95 10.53-8.08 11.4-3.48 11.85-3.48 12.7-8.08 17.38-31.13 23.5-31.13 28.18-8.08 29.03-3.48 29.48-3.48 30.38-8.08 35.02-31.95 39.23-31.95 32.65 0 26.1 0 22.4-18.38 20.65-27.7 20.25-27.7 18.48-18.38 14.83 0Z" opacity="1" transform="matrix(1,0,0,1,0,0)" fill="#ffffff" class="wordmark-text-0" data-fill-palette-color="quaternary" id="text-0"></path></svg></g></svg></g></svg></g></svg></g><g transform="matrix(1,0,0,1,0,38.32351873467133)"><svg viewBox="0 0 131.7319166783831 105.38658641878787" height="105.38658641878787" width="131.7319166783831"><g><svg xmlns="http://www.w3.org/2000/svg" xmlns:xlink="http://www.w3.org/1999/xlink" version="1.1" x="0" y="0" viewBox="0 9.999999248585059 99.99900168867421 80.00000075141494" enable-background="new 0 0 100 100" xml:space="preserve" height="105.38658641878787" width="131.7319166783831" class="icon-icon-0" data-fill-palette-color="quaternary" id="icon-0"><path fill="#ffffff" d="M97.327 10H2.673A2.673 2.673 0 0 0 0 12.673V87.327A2.673 2.673 0 0 0 2.673 90H97.326A2.673 2.673 0 0 0 99.999 87.327V12.673A2.67 2.67 0 0 0 97.327 10M95 85H5V30H95zM5 25V15H95V25z" data-fill-palette-color="quaternary"></path><circle fill="#ffffff" cx="10" cy="20" r="2.0" data-fill-palette-color="quaternary"></circle><circle fill="#ffffff" cx="17.5" cy="20" r="2.0" data-fill-palette-color="quaternary"></circle><circle fill="#ffffff" cx="25" cy="20" r="2.0" data-fill-palette-color="quaternary"></circle><path fill="#ffffff" d="M32.116 73.384A1.96 1.96 0 0 1 29.348 73.384L15.61 59.645A2.325 2.325 0 0 1 15.61 56.355L29.349 42.616A1.96 1.96 0 0 1 32.117 42.616L32.76 43.259A2.135 2.135 0 0 1 32.76 46.277L21.143 57.893A0.15 0.15 0 0 0 21.143 58.107L32.884 69.848A1.96 1.96 0 0 1 32.884 72.616z" data-fill-palette-color="quaternary"></path><path fill="#ffffff" d="M68.019 73.384A1.96 1.96 0 0 0 70.787 73.384L84.526 59.645A2.325 2.325 0 0 0 84.526 56.355L70.787 42.616A1.96 1.96 0 0 0 68.019 42.616L67.376 43.259A2.135 2.135 0 0 0 67.376 46.277L78.992 57.893A0.15 0.15 0 0 1 78.992 58.107L67.251 69.848A1.96 1.96 0 0 0 67.251 72.616z" data-fill-palette-color="quaternary"></path><path fill="#ffffff" d="M61.388 41.954A1.96 1.96 0 0 0 60.471 40.77L59.528 40.231A1.957 1.957 0 0 0 56.858 40.959L38.8 72.56A1.96 1.96 0 0 0 39.528 75.23L40.471 75.769C41.409 76.305 42.605 75.979 43.141 75.041L61.2 43.44C61.457 42.989 61.525 42.454 61.388 41.954" data-fill-palette-color="quaternary"></path></svg></g></svg></g></svg></g></svg></g></svg></g><defs></defs></svg><rect width="342.85155851775386" height="342.85155851775386" fill="none" stroke="none" visibility="hidden"></rect></g></svg></g></svg>